<svg width="17" height="18" viewBox="0 0 17 18" fill="none" xmlns="http://www.w3.org/2000/svg">
<path d="M0.901855 1.34766L2.61043 1.64559L3.40146 11.1405C3.46471 11.9159 4.10789 12.511 4.88003 12.5085H13.841C14.5778 12.5101 15.2029 11.9639 15.3072 11.229L16.0868 5.80173C16.1739 5.1951 15.7557 4.63235 15.1545 4.54462C15.1019 4.53717 2.88478 4.53304 2.88478 4.53304" stroke="#1CCE66" stroke-width="1.5" stroke-linecap="round" stroke-linejoin="round"/>
<path d="M10.2456 7.59348H12.5234" stroke="#1CCE66" stroke-width="1.5" stroke-linecap="round" stroke-linejoin="round"/>
<path fill-rule="evenodd" clip-rule="evenodd" d="M4.51961 15.3789C4.76686 15.3789 4.96647 15.5808 4.96647 15.8291C4.96647 16.0782 4.76686 16.2801 4.51961 16.2801C4.27236 16.2801 4.07275 16.0782 4.07275 15.8291C4.07275 15.5808 4.27236 15.3789 4.51961 15.3789Z" fill="#1CCE66" stroke="#1CCE66" stroke-width="1.5" stroke-linecap="round" stroke-linejoin="round"/>
<path fill-rule="evenodd" clip-rule="evenodd" d="M13.7857 15.3789C14.033 15.3789 14.2334 15.5808 14.2334 15.8291C14.2334 16.0782 14.033 16.2801 13.7857 16.2801C13.5385 16.2801 13.3389 16.0782 13.3389 15.8291C13.3389 15.5808 13.5385 15.3789 13.7857 15.3789Z" fill="#1CCE66" stroke="#1CCE66" stroke-width="1.5" stroke-linecap="round" stroke-linejoin="round"/>
</svg>
